<svg width="16" height="16" viewBox="0 0 16 16" fill="none" xmlns="http://www.w3.org/2000/svg">
    <symbol id='write'>
        <rect width="48" height="48" rx="24" fill="black"/>
        <path d="M35.2531 14.91C35.3932 15.0506 35.4719 15.241 35.4719 15.4395C35.4719 15.638 35.3932 15.8284 35.2531 15.969L33.6886 17.535L30.6886 14.535L32.2531 12.969C32.3937 12.8284 32.5844 12.7494 32.7833 12.7494C32.9822 12.7494 33.1729 12.8284 33.3136 12.969L35.2531 14.9085V14.91ZM32.6281 18.594L29.6281 15.594L19.4086 25.815C19.326 25.8975 19.2639 25.9982 19.2271 26.109L18.0196 29.73C17.9977 29.796 17.9946 29.8668 18.0106 29.9345C18.0266 30.0022 18.0611 30.0641 18.1103 30.1132C18.1595 30.1624 18.2214 30.197 18.2891 30.213C18.3567 30.229 18.4275 30.2259 18.4936 30.204L22.1146 28.9965C22.2252 28.9602 22.3259 28.8985 22.4086 28.8165L32.6281 18.5955V18.594Z"
              fill="#FFFFD3"/>
        <path fill-rule="evenodd" clip-rule="evenodd"
              d="M13.5 32.25C13.5 32.8467 13.7371 33.419 14.159 33.841C14.581 34.2629 15.1533 34.5 15.75 34.5H32.25C32.8467 34.5 33.419 34.2629 33.841 33.841C34.2629 33.419 34.5 32.8467 34.5 32.25V23.25C34.5 23.0511 34.421 22.8603 34.2803 22.7197C34.1397 22.579 33.9489 22.5 33.75 22.5C33.5511 22.5 33.3603 22.579 33.2197 22.7197C33.079 22.8603 33 23.0511 33 23.25V32.25C33 32.4489 32.921 32.6397 32.7803 32.7803C32.6397 32.921 32.4489 33 32.25 33H15.75C15.5511 33 15.3603 32.921 15.2197 32.7803C15.079 32.6397 15 32.4489 15 32.25V15.75C15 15.5511 15.079 15.3603 15.2197 15.2197C15.3603 15.079 15.5511 15 15.75 15H25.5C25.6989 15 25.8897 14.921 26.0303 14.7803C26.171 14.6397 26.25 14.4489 26.25 14.25C26.25 14.0511 26.171 13.8603 26.0303 13.7197C25.8897 13.579 25.6989 13.5 25.5 13.5H15.75C15.1533 13.5 14.581 13.7371 14.159 14.159C13.7371 14.581 13.5 15.1533 13.5 15.75V32.25Z"
              fill="#FFFFD3"/>
    </symbol>
    <symbol id='people'>
        <path d="M7 14C7 14 6 14 6 13C6 12 7 9 11 9C15 9 16 12 16 13C16 14 15 14 15 14H7ZM11 8C11.7956 8 12.5587 7.68393 13.1213 7.12132C13.6839 6.55871 14 5.79565 14 5C14 4.20435 13.6839 3.44129 13.1213 2.87868C12.5587 2.31607 11.7956 2 11 2C10.2044 2 9.44129 2.31607 8.87868 2.87868C8.31607 3.44129 8 4.20435 8 5C8 5.79565 8.31607 6.55871 8.87868 7.12132C9.44129 7.68393 10.2044 8 11 8V8Z"
              fill="black"/>
        <path fill-rule="evenodd" clip-rule="evenodd"
              d="M5.216 14C5.06775 13.6878 4.99382 13.3455 5 13C5 11.645 5.68 10.25 6.936 9.28C6.30909 9.08684 5.65595 8.99237 5 9C1 9 0 12 0 13C0 14 1 14 1 14H5.216Z"
              fill="black"/>
        <path d="M4.5 8C5.16304 8 5.79893 7.73661 6.26777 7.26777C6.73661 6.79893 7 6.16304 7 5.5C7 4.83696 6.73661 4.20107 6.26777 3.73223C5.79893 3.26339 5.16304 3 4.5 3C3.83696 3 3.20107 3.26339 2.73223 3.73223C2.26339 4.20107 2 4.83696 2 5.5C2 6.16304 2.26339 6.79893 2.73223 7.26777C3.20107 7.73661 3.83696 8 4.5 8V8Z"
              fill="black"/>
    </symbol>
    <symbol id='bookmark'>
        <path fill-rule="evenodd" clip-rule="evenodd"
              d="M7.9998 4.41001C9.3868 2.98501 12.8538 5.48001 7.9998 8.68701C3.1458 5.48001 6.6128 2.98601 7.9998 4.41201V4.41001Z"
              fill="black"/>
        <path d="M2 2C2 1.46957 2.21071 0.960859 2.58579 0.585786C2.96086 0.210714 3.46957 0 4 0L12 0C12.5304 0 13.0391 0.210714 13.4142 0.585786C13.7893 0.960859 14 1.46957 14 2V15.5C14 15.5904 13.9754 15.6792 13.9289 15.7568C13.8824 15.8343 13.8157 15.8979 13.736 15.9405C13.6563 15.9832 13.5664 16.0035 13.4761 15.9992C13.3858 15.9948 13.2983 15.9661 13.223 15.916L8 13.101L2.777 15.916C2.70171 15.9661 2.61423 15.9948 2.52389 15.9992C2.43355 16.0035 2.34373 15.9832 2.264 15.9405C2.18427 15.8979 2.1176 15.8343 2.07111 15.7568C2.02462 15.6792 2.00005 15.5904 2 15.5V2ZM4 1C3.73478 1 3.48043 1.10536 3.29289 1.29289C3.10536 1.48043 3 1.73478 3 2V14.566L7.723 12.084C7.80506 12.0294 7.90143 12.0003 8 12.0003C8.09857 12.0003 8.19494 12.0294 8.277 12.084L13 14.566V2C13 1.73478 12.8946 1.48043 12.7071 1.29289C12.5196 1.10536 12.2652 1 12 1H4Z"
              fill="black"/>
    </symbol>
    <symbol id='emoji'>
        <path d="M8 15C6.14348 15 4.36301 14.2625 3.05025 12.9497C1.7375 11.637 1 9.85652 1 8C1 6.14348 1.7375 4.36301 3.05025 3.05025C4.36301 1.7375 6.14348 1 8 1C9.85652 1 11.637 1.7375 12.9497 3.05025C14.2625 4.36301 15 6.14348 15 8C15 9.85652 14.2625 11.637 12.9497 12.9497C11.637 14.2625 9.85652 15 8 15ZM8 16C10.1217 16 12.1566 15.1571 13.6569 13.6569C15.1571 12.1566 16 10.1217 16 8C16 5.87827 15.1571 3.84344 13.6569 2.34315C12.1566 0.842855 10.1217 0 8 0C5.87827 0 3.84344 0.842855 2.34315 2.34315C0.842855 3.84344 0 5.87827 0 8C0 10.1217 0.842855 12.1566 2.34315 13.6569C3.84344 15.1571 5.87827 16 8 16V16Z"
              fill="black"/>
        <path d="M11.315 10.014C11.41 9.99164 11.5094 9.99754 11.601 10.031C11.6926 10.0644 11.7724 10.1239 11.8307 10.2021C11.8889 10.2803 11.923 10.3738 11.9288 10.4712C11.9345 10.5685 11.9117 10.6655 11.863 10.75C11.4682 11.4343 10.9 12.0026 10.2157 12.3976C9.53141 12.7926 8.75515 13.0003 7.96505 13C7.17494 13.0003 6.39868 12.7926 5.71439 12.3976C5.0301 12.0026 4.46192 11.4343 4.06705 10.75C4.01842 10.6655 3.99558 10.5685 4.00133 10.4712C4.00708 10.3738 4.04118 10.2803 4.09942 10.2021C4.15766 10.1239 4.2375 10.0644 4.32912 10.031C4.42073 9.99754 4.52012 9.99164 4.61505 10.014H4.62005L4.63705 10.019L4.70405 10.034L4.95605 10.089C5.17105 10.135 5.47105 10.197 5.81305 10.258C6.50605 10.382 7.33505 10.5 7.96505 10.5C8.59505 10.5 9.42505 10.382 10.117 10.258C10.4883 10.1912 10.858 10.1165 11.226 10.034L11.293 10.019L11.31 10.015L11.315 10.013V10.014ZM4.75605 4.56599C5.51905 3.14199 8.77605 4.44599 5.70805 7.99999C1.21205 6.40399 3.35805 3.70199 4.75605 4.56599ZM11.244 4.56599C12.642 3.70199 14.788 6.40399 10.292 7.99999C7.22505 4.44599 10.482 3.14199 11.244 4.56599Z"
              fill="black"/>
    </symbol>

</svg>
